<svg xmlns:dc="http://purl.org/dc/elements/1.1/" xmlns:cc="http://creativecommons.org/ns#" xmlns:rdf="http://www.w3.org/1999/02/22-rdf-syntax-ns#" xmlns:svg="http://www.w3.org/2000/svg" xmlns="http://www.w3.org/2000/svg" xmlns:sodipodi="http://sodipodi.sourceforge.net/DTD/sodipodi-0.dtd" xmlns:inkscape="http://www.inkscape.org/namespaces/inkscape" width="198.13793352923102" height="59.48276011753876" version="1.1" inkscape:version="0.92.4 (5da689c313, 2019-01-14)" sodipodi:docname="ufrrj-logo.svg" inkscape:export-filename="C:\Users\suitedoalex\sites\ufrrj-logo-0.png" inkscape:export-xdpi="148.63" inkscape:export-ydpi="148.63"><rect id="backgroundrect" width="100%" height="100%" x="0" y="0" fill="none" stroke="none" class="selected" style=""/>
  <defs id="defs1148"/>
  <sodipodi:namedview id="base" pagecolor="#ffffff" bordercolor="#666666" borderopacity="1.0" inkscape:pageopacity="0.0" inkscape:pageshadow="2" inkscape:zoom="0.12374369" inkscape:cx="2459.8226" inkscape:cy="653.57042" inkscape:document-units="mm" inkscape:current-layer="layer1" showgrid="false" inkscape:window-width="1600" inkscape:window-height="837" inkscape:window-x="-8" inkscape:window-y="-8" inkscape:window-maximized="1"/>
  <metadata id="metadata1151">
    <rdf:RDF>
      <cc:Work rdf:about="">
        <dc:format>image/svg+xml</dc:format>
        <dc:type rdf:resource="http://purl.org/dc/dcmitype/StillImage"/>
        <dc:title/>
      </cc:Work>
    </rdf:RDF>
  </metadata>
  
<g class="currentLayer" style=""><title>Layer 1</title>
    
    
    
    
    
    
    
    
    
    
    
    
    
    
    
    
    
    
    
    <path d="m1078.0820424316407,-148.438982644043 h2.3581 v10.49094 c0,1.828 0.3410000000000003,3.08192 1.0239,3.7609000000000004 c0.6786000000000006,0.6823900000000006 1.6297000000000001,1.02385 2.8531,1.02385 c0.7701,0 1.4222000000000001,-0.13421000000000008 1.9511,-0.3984000000000003 c0.5331,-0.2649 0.9471,-0.6979200000000007 1.2385,-1.29595 c0.29090000000000016,-0.60255 0.43660000000000015,-1.6030900000000003 0.43660000000000015,-3.01022 v-10.57091 h2.0673 v10.53608 c0,1.8066 -0.22260000000000008,3.10566 -0.6676000000000006,3.90352 c-0.4450000000000002,0.7972400000000003 -1.0777,1.4299600000000001 -1.8866,1.8980200000000007 c-0.8127000000000003,0.46763 -1.8901000000000003,0.70145 -3.2322,0.70145 c-1.4306,0 -2.584,-0.24159000000000008 -3.4691,-0.7283700000000003 c-0.8822000000000003,-0.4874100000000002 -1.5498,-1.15425 -1.9985,-2.0015 c-0.4480000000000002,-0.84731 -0.6749000000000006,-2.12807 -0.6749000000000006,-3.84207 zm16.0767,16.62511 v-16.62511 h2.3121 l8.3619,12.83673 v-12.83673 h2.0209 v16.62511 h-2.3004000000000002 l-8.3733,-12.84075 v12.84075 zm16.9856,0 v-16.62511 h2.3582 v16.62511 zm11.1723,0 l-6.2723,-16.62511 h2.3614 l5.1411,13.61517 l4.9696,-13.61517 h2.0623 l-6.0346,16.62511 zm10.5091,0 v-16.62511 h9.313 v1.76436 h-6.9549 v5.33715 h5.8316 v1.7400000000000002 h-5.8316 v6.01925 h7.4384 v1.76435 zm12.4688,0 v-16.62511 h5.0336 c1.864,0 3.1519,0.41819 3.8655,1.25393 c0.7089000000000003,0.8318400000000004 1.0662,1.79091 1.0662,2.86851 c0,0.6286900000000006 -0.1275,1.24961 -0.3758000000000003,1.86687 c-0.2537,0.6131400000000004 -0.6103000000000003,1.15763 -1.0742,1.63713 c-0.4641,0.47893 -1.096,0.8853300000000003 -1.8980000000000001,1.21507 l5.5440000000000005,7.7836 h-2.8911000000000002 l-4.7348,-7.03179 h-2.2008 v7.03179 zm2.3346,-8.79523 h0.7632000000000003 c1.7449000000000003,0 2.9256,-0.36450000000000016 3.5349,-1.08961 c0.6102000000000003,-0.7280800000000003 0.9169,-1.52538 0.9169,-2.39207 c0,-0.5177700000000003 -0.11550000000000005,-0.9701599999999997 -0.3419000000000003,-1.35337 c-0.23020000000000004,-0.38710000000000017 -0.5869000000000003,-0.6859100000000004 -1.0701,-0.9050400000000003 c-0.48240000000000016,-0.21827000000000008 -1.2570999999999999,-0.32565000000000016 -2.3189,-0.32565000000000016 h-1.4843000000000002 zm11.1883,8.48089 v-2.33527 c1.3415000000000001,0.6138700000000004 2.323,0.98189 2.9402,1.1082 c0.6174000000000003,0.12646000000000004 1.1926,0.1921400000000001 1.7215,0.1921400000000001 c0.9551000000000003,0 1.714,-0.26067 2.2664,-0.78248 c0.5559000000000003,-0.51778 0.8318000000000003,-1.14216 0.8318000000000003,-1.86713 c0,-0.54817 -0.14550000000000007,-1.05472 -0.4373000000000003,-1.51798 c-0.29450000000000015,-0.45703 -1.0313,-1.01275 -2.1969,-1.6719600000000003 l-1.1502000000000001,-0.6633100000000003 c-1.5373999999999999,-0.8666700000000006 -2.5687,-1.6596700000000006 -3.0976,-2.38061 c-0.5256000000000003,-0.7167100000000003 -0.7905,-1.51486 -0.7905,-2.39269 c0,-0.7858700000000003 0.21120000000000008,-1.52229 0.6294000000000003,-2.21236 c0.41830000000000017,-0.6901500000000006 0.9779,-1.22708 1.6835,-1.6177100000000002 c0.7057000000000003,-0.3871100000000002 1.5908000000000002,-0.5827800000000003 2.6607000000000003,-0.5827800000000003 c1.2922,0 2.6489000000000003,0.21475000000000008 4.0827,0.6407000000000006 v2.1586 c-1.2459,-0.48671000000000014 -2.1003,-0.7824099999999997 -2.5644,-0.8821500000000003 c-0.4641,-0.10387 -0.9276000000000003,-0.15399000000000013 -1.3885,-0.15399000000000013 c-0.9657000000000003,0 -1.6832000000000007,0.24936000000000008 -2.1467,0.75153 c-0.4641,0.50225 -0.6979000000000006,1.01678 -0.6979000000000006,1.5373999999999999 c0,0.36026 0.11160000000000005,0.7249700000000003 0.33060000000000017,1.0967500000000001 c0.21830000000000008,0.37156000000000017 0.5178,0.6901400000000006 0.8855000000000003,0.95447 c0.37170000000000014,0.26491000000000015 0.8819000000000004,0.5834900000000003 1.5291000000000001,0.94757 l1.2004000000000001,0.6745900000000004 c1.549,0.8781900000000004 2.5843,1.6794600000000002 3.1058,2.40443 c0.5179,0.7321000000000003 0.7784,1.5754000000000001 0.7784,2.52641 c0,1.29511 -0.49520000000000014,2.4187 -1.484,3.36972 c-0.9929,0.9510200000000003 -2.4501,1.42655 -4.378,1.42655 c-0.5948000000000003,0 -1.1697,-0.03530000000000001 -1.7255,-0.11941000000000004 c-0.5595,-0.0763 -1.4222000000000001,-0.27973 -2.5879000000000003,-0.6096200000000006 zm13.3994,0.3143400000000002 v-16.62511 h2.3581 v16.62511 zm6.6409,0 v-16.62511 h5.5252 c2.1353,0 3.7494,0.31153000000000014 4.8497,0.92849 c1.1006,0.6173900000000003 1.9634,1.51797 2.5881,2.70703 c0.6251000000000003,1.18421 0.9396000000000003,2.61465 0.9396000000000003,4.28267 c0,1.58288 -0.28740000000000016,3.03198 -0.8587000000000004,4.3472800000000005 c-0.5708000000000003,1.3188300000000002 -1.4421,2.37355 -2.6107,3.16739 c-1.1697,0.7938500000000003 -2.7913,1.19225 -4.8732,1.19225 zm2.3579,-1.76435 h3.0215 c1.5723,0 2.749,-0.24865 3.5309,-0.7466600000000003 c0.7824,-0.49872000000000016 1.3956,-1.28478 1.8364,-2.36614 c0.44150000000000017,-1.07731 0.6632000000000003,-2.27691 0.6632000000000003,-3.60373 c0,-1.1699300000000001 -0.19140000000000013,-2.23178 -0.5714,-3.19396 c-0.3829000000000003,-0.9624 -1.0005,-1.7368200000000007 -1.8557000000000001,-2.3160600000000002 c-0.8505,-0.57923 -2.4157,-0.8698500000000003 -4.6811,-0.8698500000000003 h-1.9444 zm12.9169,1.76435 l6.595,-16.62511 h2.3274 l6.499,16.62511 h-2.5501 l-1.8137,-4.60511 h-7.0432 l-1.8248000000000002,4.60511 zm4.7086000000000015,-6.3571100000000005 h5.6588 l-2.8178,-7.16545 zm13.1201,6.3571100000000005 v-16.62511 h5.5252 c2.1352,0 3.7497000000000007,0.31153000000000014 4.8497,0.92849 c1.1011,0.6173900000000003 1.9635,1.51797 2.5881,2.70703 c0.6251000000000003,1.18421 0.9396000000000003,2.61465 0.9396000000000003,4.28267 c0,1.58288 -0.28750000000000014,3.03198 -0.8594,4.3472800000000005 c-0.5714,1.3188300000000002 -1.4411,2.37355 -2.6106000000000007,3.16739 c-1.1691,0.7938500000000003 -2.7916,1.19225 -4.8733,1.19225 zm2.3582,-1.76435 h3.0213 c1.5713,0 2.7484,-0.24865 3.5308,-0.7466600000000003 c0.7828,-0.49872000000000016 1.3957000000000002,-1.28478 1.8364,-2.36614 c0.4414000000000002,-1.07731 0.6632000000000003,-2.27691 0.6632000000000003,-3.60373 c0,-1.1699300000000001 -0.19140000000000013,-2.23178 -0.5707000000000003,-3.19396 c-0.3835000000000002,-0.9624 -1.0005,-1.7368200000000007 -1.8561,-2.3160600000000002 c-0.8512000000000003,-0.57923 -2.4155,-0.8698500000000003 -4.681,-0.8698500000000003 h-1.9441000000000002 zm14.8721,1.76435 v-16.62511 h9.313 v1.76436 h-6.9549 v5.33715 h5.8312 v1.7400000000000002 h-5.8312 v6.01925 h7.4384 v1.76435 zm19.7462,0 v-16.62511 h9.4392 v1.76436 h-7.0812 v5.57062 h5.969 v1.74055 h-5.969 v7.54958 zm12.3343,0 v-16.62511 h9.3129 v1.76436 h-6.9548000000000005 v5.33715 h5.8313 v1.7400000000000002 h-5.8313 v6.01925 h7.4378 v1.76435 zm12.4689,0 v-16.62511 h5.5244 c2.1361,0 3.7497000000000007,0.31153000000000014 4.8505,0.92849 c1.1002,0.6173900000000003 1.9627000000000003,1.51797 2.5882,2.70703 c0.6244000000000003,1.18421 0.9387000000000003,2.61465 0.9387000000000003,4.28267 c0,1.58288 -0.2876,3.03198 -0.8587000000000004,4.3472800000000005 c-0.5708000000000003,1.3188300000000002 -1.4417,2.37355 -2.6108000000000002,3.16739 c-1.1696,0.7938500000000003 -2.7914,1.19225 -4.8731,1.19225 zm2.3581,-1.76435 h3.0206 c1.5722,0 2.7492,-0.24865 3.5316,-0.7466600000000003 c0.7817000000000003,-0.49872000000000016 1.3948,-1.28478 1.8364,-2.36614 c0.44070000000000015,-1.07731 0.6625000000000003,-2.27691 0.6625000000000003,-3.60373 c0,-1.1699300000000001 -0.19140000000000013,-2.23178 -0.5714,-3.19396 c-0.3828000000000003,-0.9624 -1.0002,-1.7368200000000007 -1.8557000000000001,-2.3160600000000002 c-0.8505,-0.57923 -2.4147,-0.8698500000000003 -4.6812000000000005,-0.8698500000000003 h-1.9431 zm14.8722,1.76435 v-16.62511 h9.3131 v1.76436 h-6.9552 v5.33715 h5.8314 v1.7400000000000002 h-5.8314 v6.01925 h7.4377 v1.76435 zm12.4682,0 v-16.62511 h5.0342 c1.8637000000000001,0 3.1517,0.41819 3.8646000000000003,1.25393 c0.7095,0.8318400000000004 1.0659,1.79091 1.0659,2.86851 c0,0.6286900000000006 -0.1262,1.24961 -0.3758000000000003,1.86687 c-0.2529,0.6131400000000004 -0.6095,1.15763 -1.0734,1.63713 c-0.4641,0.47893 -1.0966,0.8853300000000003 -1.8976000000000006,1.21507 l5.5437,7.7836 h-2.891 l-4.7346,-7.03179 h-2.2008 v7.03179 zm2.3352,-8.79523 h0.7630000000000003 c1.7448000000000001,0 2.925,-0.36450000000000016 3.5347,-1.08961 c0.6104,-0.7280800000000003 0.9163,-1.52538 0.9163,-2.39207 c0,-0.5177700000000003 -0.11560000000000006,-0.9701599999999997 -0.3413000000000003,-1.35337 c-0.2301,-0.38710000000000017 -0.5863,-0.6859100000000004 -1.0702,-0.9050400000000003 c-0.48240000000000016,-0.21827000000000008 -1.2570000000000001,-0.32565000000000016 -2.3188,-0.32565000000000016 h-1.484 zm10.2556,8.79523 l6.5945,-16.62511 h2.3282 l6.4979000000000005,16.62511 h-2.549 l-1.8137,-4.60511 h-7.0432 l-1.8251,4.60511 zm4.7089,-6.3571100000000005 h5.6588 l-2.8181000000000003,-7.16545 zm13.1201,6.3571100000000005 v-16.62511 h2.3579 v14.86076 h7.3843 v1.76435 zm19.5427,0 v-16.62511 h5.0337 c1.8638000000000003,0 3.152,0.41819 3.8646000000000003,1.25393 c0.7096000000000003,0.8318400000000004 1.066,1.79091 1.066,2.86851 c0,0.6286900000000006 -0.1262,1.24961 -0.3758000000000003,1.86687 c-0.2529,0.6131400000000004 -0.6089000000000003,1.15763 -1.0734,1.63713 c-0.464,0.47893 -1.0968,0.8853300000000003 -1.8978000000000006,1.21507 l5.5439,7.7836 h-2.8911000000000002 l-4.7345,-7.03179 h-2.201 v7.03179 zm2.3347,-8.79523 h0.7630000000000003 c1.7449000000000003,0 2.9251,-0.36450000000000016 3.5352,-1.08961 c0.6096000000000005,-0.7280800000000003 0.9161,-1.52538 0.9161,-2.39207 c0,-0.5177700000000003 -0.11550000000000005,-0.9701599999999997 -0.34120000000000017,-1.35337 c-0.2303,-0.38710000000000017 -0.5863,-0.6859100000000004 -1.07,-0.9050400000000003 c-0.48310000000000014,-0.21827000000000008 -1.2572,-0.32565000000000016 -2.3191,-0.32565000000000016 h-1.484 zm12.0735,-7.82988 h2.3581 v10.49094 c0,1.828 0.3411000000000002,3.08192 1.0239,3.7609000000000004 c0.6787000000000006,0.6823900000000006 1.6288,1.02385 2.8521,1.02385 c0.771,0 1.4223000000000001,-0.13421000000000008 1.9512,-0.3984000000000003 c0.5333,-0.2649 0.9479000000000003,-0.6979200000000007 1.2388,-1.29595 c0.29180000000000017,-0.60255 0.4373000000000003,-1.6030900000000003 0.4373000000000003,-3.01022 v-10.57091 h2.0663 v10.53608 c0,1.8066 -0.2225000000000001,3.10566 -0.6675000000000003,3.90352 c-0.4443000000000003,0.7972400000000003 -1.0767,1.4299600000000001 -1.8858000000000001,1.8980200000000007 c-0.8133,0.46763 -1.8906,0.70145 -3.2322,0.70145 c-1.4306,0 -2.5848,-0.24159000000000008 -3.4701,-0.7283700000000003 c-0.8813000000000003,-0.4874100000000002 -1.5488,-1.15425 -1.9975,-2.0015 c-0.44860000000000017,-0.84731 -0.6753000000000003,-2.12807 -0.6753000000000003,-3.84207 zm16.0769,16.62511 v-16.62511 h5.0334 c1.864,0 3.1519,0.41819 3.8647,1.25393 c0.7095,0.8318400000000004 1.0661,1.79091 1.0661,2.86851 c0,0.6286900000000006 -0.1262,1.24961 -0.37510000000000016,1.86687 c-0.2536,0.6131400000000004 -0.6096000000000005,1.15763 -1.0741,1.63713 c-0.4641,0.47893 -1.096,0.8853300000000003 -1.8979000000000006,1.21507 l5.5439,7.7836 h-2.8911000000000002 l-4.7345,-7.03179 h-2.201 v7.03179 zm2.3344,-8.79523 h0.7630000000000003 c1.7449000000000003,0 2.9259,-0.36450000000000016 3.5352,-1.08961 c0.6095,-0.7280800000000003 0.9161,-1.52538 0.9161,-2.39207 c0,-0.5177700000000003 -0.11560000000000006,-0.9701599999999997 -0.3411000000000002,-1.35337 c-0.23040000000000008,-0.38710000000000017 -0.5863,-0.6859100000000004 -1.07,-0.9050400000000003 c-0.4832,-0.21827000000000008 -1.2574,-0.32565000000000016 -2.3192,-0.32565000000000016 h-1.484 zm10.2556,8.79523 l6.5955,-16.62511 h2.3272 l6.4988,16.62511 h-2.5499 l-1.8136,-4.60511 h-7.0433 l-1.8251,4.60511 zm4.7089,-6.3571100000000005 h5.6589 l-2.8182,-7.16545 zm13.1201,6.3571100000000005 v-16.62511 h2.3582 v14.86076 h7.3841 v1.76435 zm-336.0854,26.19408 v-16.624200000000002 h5.5243 c2.1361,0 3.7507,0.31011000000000016 4.8505,0.92813 c1.1003,0.6173900000000003 1.9627000000000003,1.51797 2.5882,2.70648 c0.6245,1.18504 0.9397000000000003,2.61471 0.9397000000000003,4.28265 c0,1.58345 -0.2876,3.03283 -0.8597000000000004,4.3482 c-0.5708000000000003,1.3187600000000002 -1.4407,2.37355 -2.6107,3.16655 c-1.1695,0.7937700000000003 -2.7913,1.19219 -4.873,1.19219 zm2.3581,-1.7634400000000001 h3.0213 c1.5716,0 2.7486,-0.24866000000000008 3.5309,-0.7475900000000003 c0.7819,-0.49800000000000016 1.3957000000000002,-1.28387 1.8363,-2.36522 c0.44070000000000015,-1.07731 0.6634000000000003,-2.27783 0.6634000000000003,-3.60493 c0,-1.16873 -0.19220000000000012,-2.23058 -0.5716000000000003,-3.19304 c-0.3835000000000002,-0.9630200000000003 -1.0009,-1.73744 -1.8557000000000001,-2.31584 c-0.8513000000000003,-0.5792400000000003 -2.4155,-0.8707000000000005 -4.6819000000000015,-0.8707000000000005 h-1.9431 zm21.6659,2.17836 c-1.5714000000000001,0 -2.9405,-0.3532 -4.1061,-1.05478 c-1.1617,-0.7056800000000003 -2.0663,-1.7334200000000002 -2.7071,-3.08306 c-0.6399000000000004,-1.35281 -0.9585,-2.88279 -0.9585,-4.5888 c0,-1.64858 0.3074000000000002,-3.14762 0.9163,-4.49733 c0.6104,-1.35365 1.5108000000000001,-2.39692 2.6990000000000007,-3.12904 c1.1926,-0.73245 2.5768,-1.1002 4.1564,-1.1002 c1.5794000000000001,0 2.9639,0.3680200000000002 4.1562,1.1002 c1.1884000000000001,0.7321200000000003 2.0899,1.77539 2.6992000000000003,3.12904 c0.6097000000000004,1.34971 0.9167000000000003,2.84875 0.9167000000000003,4.49733 c0,1.6411600000000002 -0.30300000000000016,3.13258 -0.9046000000000003,4.4748 c-0.6026000000000004,1.34532 -1.4921,2.38782 -2.6723,3.1354 c-1.181,0.7438200000000005 -2.5766,1.11644 -4.1952,1.11644 zm0,-1.7642700000000002 c1.6761000000000006,0 2.9754,-0.62446 3.8914,-1.8746400000000008 c0.9168000000000003,-1.24989 1.377,-2.95252 1.377,-5.11118 c0,-2.14658 -0.4641,-3.84115 -1.3884,-5.07968 c-0.9234,-1.2388 -2.2163,-1.86 -3.88,-1.86 c-1.6637000000000006,0 -2.9559,0.6209200000000004 -3.8801,1.86 c-0.9236000000000003,1.23853 -1.3877000000000002,2.9331 -1.3877000000000002,5.07968 c0,2.1586600000000002 0.46,3.8612900000000003 1.3764,5.11118 c0.916,1.24989 2.2163,1.8746400000000008 3.8914,1.8746400000000008 zm18.3545,1.34935 v-16.624200000000002 h5.0336 c1.8638000000000003,0 3.1519,0.4174800000000003 3.8656,1.25391 c0.7087000000000003,0.83186 1.0659,1.79001 1.0659,2.86733 c0,0.6286900000000006 -0.1275,1.2499 -0.3759000000000002,1.86714 c-0.2536,0.6138500000000003 -0.6102000000000003,1.15848 -1.0741,1.6379800000000002 c-0.4641,0.47893 -1.0959,0.8853300000000003 -1.8980000000000001,1.21507 l5.5441,7.78277 h-2.8912 l-4.7347,-7.03089 h-2.2007 v7.03089 zm2.3346,-8.79517 h0.7630000000000003 c1.7449000000000003,0 2.926,-0.36450000000000016 3.5349,-1.08876 c0.6104,-0.72816 0.917,-1.52625 0.917,-2.39213 c0,-0.5177900000000003 -0.11560000000000006,-0.9704499999999997 -0.3419000000000003,-1.3536700000000002 c-0.23020000000000004,-0.38710000000000017 -0.5864,-0.6866200000000008 -1.0701,-0.90476 c-0.48260000000000014,-0.21826000000000012 -1.2570999999999999,-0.3263500000000003 -2.319,-0.3263500000000003 h-1.484 zm12.1999,8.79517 v-16.624200000000002 h2.358 v16.624200000000002 zm13.4344,0.41464 c-1.5714000000000001,0 -2.9404,-0.35319 -4.106,-1.05478 c-1.1616,-0.7056900000000006 -2.0665,-1.7334200000000002 -2.7065,-3.08305 c-0.6408000000000005,-1.3528200000000001 -0.9590000000000003,-2.8828 -0.9590000000000003,-4.5888 c0,-1.64859 0.30720000000000014,-3.14763 0.9169,-4.49734 c0.6090000000000003,-1.35365 1.51,-2.39694 2.6990000000000007,-3.12904 c1.1926,-0.73245 2.5759,-1.10021 4.1556,-1.10021 c1.5803,0 2.9648000000000003,0.36804000000000014 4.1562,1.10021 c1.1894,0.7321000000000003 2.09,1.77539 2.6990000000000007,3.12904 c0.6104,1.34971 0.9171,2.84875 0.9171,4.49734 c0,1.64115 -0.3032,3.13257 -0.9049,4.47479 c-0.6018000000000003,1.34532 -1.4914,2.38781 -2.6724,3.13538 c-1.1808,0.7438500000000003 -2.5767,1.11646 -4.195,1.11646 zm0,-1.7642900000000006 c1.6760000000000006,0 2.976,-0.6244500000000003 3.8921,-1.8746200000000006 c0.9162,-1.2499 1.3762,-2.95252 1.3762,-5.11118 c0,-2.14659 -0.464,-3.84116 -1.3873000000000002,-5.07968 c-0.9245,-1.2388 -2.2165,-1.86001 -3.8810000000000002,-1.86001 c-1.6631,0 -2.9559,0.6209200000000004 -3.8792,1.86001 c-0.9243,1.23852 -1.3884,2.93309 -1.3884,5.07968 c0,2.1586600000000002 0.45980000000000015,3.86128 1.3761,5.11118 c0.9163,1.24989 2.2164,1.8746200000000006 3.8915,1.8746200000000006 zm18.3545,1.3493600000000003 v-16.624200000000002 h5.5243 c2.1361,0 3.7507,0.31011000000000016 4.8506,0.92813 c1.1007,0.6173900000000003 1.9629,1.51797 2.5881,2.70648 c0.6246000000000006,1.18505 0.9397000000000003,2.61471 0.9397000000000003,4.28265 c0,1.58345 -0.2876,3.03284 -0.8597000000000004,4.34821 c-0.5708000000000003,1.3187600000000002 -1.4407,2.37355 -2.6107,3.16655 c-1.1688,0.79378 -2.7913,1.19218 -4.873,1.19218 zm2.3582,-1.7634400000000001 h3.0214 c1.5713,0 2.7484,-0.24865 3.5307,-0.74758 c0.7825,-0.4980100000000002 1.3957000000000002,-1.28387 1.8364,-2.36522 c0.4414000000000002,-1.07731 0.6633000000000003,-2.27783 0.6633000000000003,-3.60493 c0,-1.16873 -0.19210000000000008,-2.23058 -0.5715,-3.19305 c-0.38360000000000016,-0.96303 -1.0002,-1.73745 -1.8558000000000003,-2.31583 c-0.8511000000000003,-0.57925 -2.4155,-0.8707100000000003 -4.6809,-0.8707100000000003 h-1.9442 zm14.8722,1.7634400000000001 v-16.624200000000002 h9.3129 v1.7634400000000001 h-6.9552 v5.33716 h5.8316 v1.7408400000000006 h-5.8316 v6.0193200000000004 h7.4387 v1.7634400000000001 zm15.5323,3.08709 v-2.0898 c0.8966000000000006,0.29457000000000017 1.6985000000000001,0.44079 2.404,0.44079 c0.47900000000000015,0 0.8897000000000006,-0.08830000000000005 1.2347000000000001,-0.2642 c0.34530000000000033,-0.17659000000000008 0.6244000000000003,-0.46834000000000015 0.8392000000000003,-0.8740800000000003 c0.21120000000000008,-0.41043 0.31850000000000017,-1.1811 0.31850000000000017,-2.31987 v-14.60413 h2.3582 v14.52382 c0,1.90917 -0.4494000000000003,3.28945 -1.3423,4.14412 c-0.8928000000000005,0.8553000000000003 -2.158,1.28076 -3.7918000000000003,1.28076 c-0.5214,0 -1.1956,-0.07980000000000002 -2.0204,-0.23735 zm9.4127,-3.08709 l6.5945,-16.624200000000002 h2.327 l6.499,16.624200000000002 h-2.5493 l-1.8142,-4.6042000000000005 h-7.0427 l-1.8249,4.6042000000000005 zm4.7085,-6.3562 h5.659 l-2.8179,-7.16637 zm13.1201,6.3562 v-16.624200000000002 h2.3118 l8.362,12.83638 v-12.83638 h2.0203 v16.624200000000002 h-2.3003 l-8.3734,-12.83984 v12.83984 zm16.9963,0 v-16.624200000000002 h9.313 v1.7634400000000001 h-6.9551 v5.33716 h5.8315 v1.7408400000000006 h-5.8315 v6.0193200000000004 h7.4386 v1.7634400000000001 zm12.4576,0 v-16.624200000000002 h2.3577 v16.624200000000002 zm6.6405,0 v-16.624200000000002 h5.0345 c1.8628,0 3.1508,0.41749 3.8646000000000003,1.25393 c0.7088000000000003,0.8318400000000004 1.066,1.78999 1.066,2.8673200000000003 c0,0.6286900000000006 -0.1275,1.24988 -0.3759000000000002,1.86714 c-0.2536,0.6138500000000003 -0.6103000000000003,1.15849 -1.0741,1.6379800000000002 c-0.4641,0.47894000000000014 -1.0959,0.8853200000000003 -1.8982,1.21507 l5.5443,7.78276 h-2.8903 l-4.7357000000000005,-7.03088 h-2.2006 v7.03088 zm2.3346,-8.79517 h0.7630000000000003 c1.7448000000000001,0 2.9258,-0.36449000000000015 3.5349,-1.08876 c0.6103000000000003,-0.7281500000000003 0.917,-1.52623 0.917,-2.39213 c0,-0.5177900000000003 -0.11550000000000005,-0.97044 -0.3419000000000003,-1.35366 c-0.2303,-0.3871100000000002 -0.5863,-0.6866200000000008 -1.0694,-0.90475 c-0.48310000000000014,-0.21827000000000008 -1.2579,-0.3263600000000003 -2.3197,-0.3263600000000003 h-1.484 zm19.0057,9.2101 c-1.5723,0 -2.9404,-0.35319 -4.106,-1.05478 c-1.1624,-0.7056900000000006 -2.0673,-1.7334200000000002 -2.7071,-3.08305 c-0.6407000000000006,-1.3528200000000001 -0.9584,-2.8828 -0.9584,-4.5888 c0,-1.64859 0.30660000000000015,-3.14763 0.9161,-4.49734 c0.6097000000000004,-1.35365 1.5109,-2.39694 2.6990000000000007,-3.12904 c1.1926,-0.73245 2.5768,-1.10021 4.1564,-1.10021 c1.5798,0 2.9639,0.36804000000000014 4.1565,1.10021 c1.1881,0.7321000000000003 2.0889,1.77539 2.6990000000000007,3.12904 c0.6095,1.34971 0.9161,2.84875 0.9161,4.49734 c0,1.64115 -0.30300000000000016,3.13257 -0.905,4.47479 c-0.6018000000000003,1.34532 -1.491,2.38781 -2.6721000000000004,3.13538 c-1.181,0.7438500000000003 -2.5767,1.11646 -4.1945,1.11646 zm0,-1.7642900000000006 c1.6752000000000002,0 2.9753,-0.6244500000000003 3.8916000000000004,-1.8746200000000006 c0.9161,-1.2499 1.3763,-2.95252 1.3763,-5.11118 c0,-2.14659 -0.4641,-3.84116 -1.3877000000000002,-5.07968 c-0.9243,-1.2388 -2.2164,-1.86001 -3.8802000000000003,-1.86001 c-1.6637000000000006,0 -2.9558,0.6209200000000004 -3.88,1.86001 c-0.9241,1.23852 -1.3884,2.93309 -1.3884,5.07968 c0,2.1586600000000002 0.4605,3.86128 1.3769,5.11118 c0.9163,1.24989 2.2156000000000002,1.8746200000000006 3.8915,1.8746200000000006 " style="fill:#1d3c85;fill-opacity:1;fill-rule:nonzero;stroke:none;stroke-width:2.85761952" id="path144" inkscape:connector-curvature="0" inkscape:export-filename="C:\Users\suitedoalex\sites\ufrrj-logo-6.png" inkscape:export-xdpi="27.043652" inkscape:export-ydpi="27.043652" class=""/>
    
    
    
    
    
    
    
  <g class=""><path d="m31.67612689637499,12.770936382130012 l0.006989636944767138,-5.483912689377643 l4.983154873651729,1.0700443803049913 l2.8534933951569372,-3.764163415289459 l6.30522528609625,2.560309148859713 l-0.8724749597444958,3.74526251951233 l5.088316550240175,3.8790968207828587 l3.924962671530347,-1.3376948203595584 l3.4585856182768207,4.42015372038102 l-3.0224096213221423,2.6689240932742475 l1.744532482838124,6.019410081635688 l4.360863613327475,0.9362327077061555 l-0.14502202283179805,5.751869807482784 l-3.6345141329880035,0.668608469271443 l-2.4712929279424047,6.019155777050257 l2.9109540355403767,2.5385637695016574 l-3.3471235606089946,4.8183940759021535 l-3.9249659074733767,-1.605202342487644 l-4.942877090757508,3.7452872324037845 l0.72702902837577,4.012889139912484 l-6.39654036245939,2.0065194529948043 l-2.4712961638854347,-3.210377292372712 l-5.199361171257133,0.6689758874407716 l0.05748652792767963,-5.083210125954352 c11.56663242901031,-0.829081481055333 17.442943174311168,-7.1073500194287185 19.027675082499552,-14.40586824830131 l-11.388293136741789,-2.360003422237133 c-0.3280793200380371,3.266088784334815 -3.659223793964967,6.0894386746287195 -7.294533968938346,6.0894386746287195 l-0.06851785771689788,-0.4240374878694971 l0.06851785771689788,-13.21511717376444 c3.589252997827606,-0.04031863578872623 6.8915263880410125,2.494579705742643 7.280839458035451,5.701872352868804 l11.269841442129195,-1.721606909386759 C49.31993152644337,19.72693944374486 42.039098540293985,13.07353293492035 31.676356648330103,12.770936382130012 " style="fill:#fbc707;fill-opacity:1;fill-rule:evenodd;stroke:none;stroke-width:4.14988852" id="path120" inkscape:connector-curvature="0" inkscape:export-filename="C:\Users\suitedoalex\sites\ufrrj-logo-7.png" inkscape:export-xdpi="30.118164" inkscape:export-ydpi="30.118164" class=""/><path d="m32.01452887467867,2.0154245155328607 c0.051868930827626156,0 0.10353399724436316,0.00024415145773858875 0.15535762486956908,0.0008932370405070321 l0.0212277862767002,-0.03819183839527891 l0.7290482568264806,0.037846453406282884 l-0.06745323246003285,4.860540423548598 l3.972508382469913,0.4192497373323795 l2.4351798037277748,-3.4749541037708958 l7.106117950074452,2.6977277126281165 l-0.7164216071234799,3.978063911922876 l4.354013121932998,3.427209095227393 l4.174214419357955,-1.5088068807872468 l4.063156854568876,5.522828347521413 l-2.9649522168817324,3.163762228685452 l1.7160658920033474,4.989285953399357 l4.391223230834793,0.7733699890932295 v6.806488281843899 l-4.391223230834793,0.830092625385187 l-1.7160658920033474,4.9325633171074 l2.9649522168817324,3.1635212035573557 l-4.063156854568876,5.523065799701349 l-4.174214419357955,-1.508803605584765 l-4.354013121932998,3.427206415516271 l0.7164216071234799,3.978157999557809 l-7.106117950074452,2.6976077211190086 l-2.4351798037277748,-3.475164609966774 l-4.177295037122501,0.5838167522185936 l-0.03609047261342025,3.6471538291682406 l-1.0963245547867229,0.002858358529622504 l-0.022230928615995463,-4.793559257592097 l6.008702882486625,-0.9505569546334064 l2.205550814433995,3.201003067378271 l5.035797194863521,-1.8402097326425617 l-0.8446652653448067,-3.612549528473318 l5.707517484970791,-4.421902231887812 l3.776976524883083,1.4629652115042255 l2.9317773289383293,-4.023641480787586 l-2.9744820691050378,-2.764553633986977 l2.3285587168328066,-6.289141138728708 l4.074968046628321,-0.7141772546385893 v-4.9489953057045675 l-4.074968046628321,-0.686258237700502 l-2.3285587168328066,-6.289016413063286 l2.9744820691050378,-2.764192587575204 l-2.9317773289383293,-4.024129634830224 l-3.776976524883083,1.4633295033439127 l-5.707517484970791,-4.4222647372534185 l0.8446652653448067,-3.6120570571183186 l-5.035797194863521,-1.8403243647294267 l-2.205550814433995,3.2006261213471774 l-5.957681768732854,-0.7670821958194202 l0.05642837455687461,-4.882162714842471 c-6.942414828130554,0.08796896120593413 -13.304858058882992,2.3846243102759885 -18.297140880633705,6.15953932207635 c0.19216938918437354,0.3394330528494733 0.3006831791575799,0.7257818925231769 0.3006831791575799,1.1349231640138187 c0,1.3581609651773356 -1.1971785440136524,2.4597273828961397 -2.673266577319026,2.4597273828961397 c-0.4667902831784551,0 -0.9052476199692727,-0.11026385999130939 -1.287023207863968,-0.30391169545963026 c-3.945515116496689,4.220861520053735 -6.504376869556421,9.570679380690702 -7.026220575098311,15.449981659574702 c0.9930627003511816,0.3586766539044766 1.6961946130448171,1.2493063354902663 1.6961946130448171,2.2903062201861304 c0,1.0384273620192044 -0.699635152655434,1.9267078301884606 -1.6886723398773147,2.2874925235085337 c0.5782491049032512,6.225755281634817 3.4423366539460556,11.851756229155793 7.816094529465111,16.165502342722213 c0.36084615556535976,-0.1670731402761961 0.7682675627555932,-0.26084724900838574 1.1994627961985194,-0.26084724900838574 c1.4762346215246318,0 2.673416077887011,1.101565524481764 2.673416077887011,2.459855115792932 c0,0.3110281149613497 -0.06287437307260439,0.6080654581572371 -0.1769996118541075,0.8819849335077627 c4.961134281332683,3.4842967677232375 11.215331981789102,5.416563807506135 17.464552801865405,5.546189175841794 c0.30726249852614446,0.006088899159456274 0.7560392576395836,-0.035150664018032664 1.06289079140092,-0.03756299951876201 l-0.047315958984437474,1.0935362167246458 c-0.3159898368780134,0.012234369998144626 -0.6801596295294708,0.059864448709101035 -0.9969455083928603,0.06016934028559403 c-6.447975676920999,0.009191409146817348 -13.02727239388484,-2.1179722114870283 -18.182861934558275,-5.723100726627814 c-0.4747157548474942,0.39652012985395707 -1.105063218939197,0.6385519360954228 -1.796775488680016,0.6385519360954228 c-1.476240122627783,0 -2.6734028105205883,-1.1015366431507871 -2.6734028105205883,-2.459854520301572 c0,-0.5492115582866302 0.1960502556602339,-1.0566973347000552 0.5269467877001751,-1.4661696993870446 C4.977034679309403,45.05625660801056 2.014776708594457,39.23480408169081 1.4004050952417906,32.79428692516983 c-1.3640043509814879,-0.11169423023884133 -2.433207496450999,-1.1656463497677385 -2.433207496450999,-2.449585867283903 c0,-1.2811940045993266 1.0650401047614362,-2.3338303859675564 2.4251046951039172,-2.448976381876597 c0.5576986015027271,-6.110214772699552 3.227209219746849,-11.668984894511208 7.335355390261604,-16.054537887145468 c-0.29623893500019854,-0.3957933326486648 -0.4701517807980034,-0.8755747667594042 -0.4701517807980034,-1.3925625010640632 c0,-1.3582830409062054 1.1971795147965618,-2.4598438014570854 2.673411223972466,-2.4598438014570854 c0.583885794067182,0 1.1243921538459019,0.1722607632617809 1.5640577917641156,0.4647244350645924 c5.308664207735352,-4.022541161626522 12.106865998791603,-6.439268411138334 19.519430989748642,-6.439268411138334 " style="fill:#1d3c85;fill-opacity:1;fill-rule:evenodd;stroke:none;stroke-width:4.14988852" id="path122" inkscape:connector-curvature="0" inkscape:export-filename="C:\Users\suitedoalex\sites\ufrrj-logo-7.png" inkscape:export-xdpi="30.118164" inkscape:export-ydpi="30.118164" class=""/><path d="m25.418835634381885,28.090528062462372 c0.9444552765034775,0.37972102083314174 1.605283382371819,1.2466182874897 1.605283382371819,2.2553568322478923 c0,0.995793455821484 -0.6436387764930624,1.85319084880657 -1.5683483286275726,2.2401828191494393 c1.0050094784235823,2.4325446910251096 3.562663253950221,4.162031439837541 6.558758186552527,4.162031439837541 c3.8732749535124005,0 7.014802873711312,-2.890612425918164 7.014802873711312,-6.454474283024566 c0,-3.564131316946955 -3.1415279201989126,-6.454468923602322 -7.014802873711312,-6.454468923602322 c-3.032764639018094,0 -5.616600429600339,1.7716335430773955 -6.595693240296773,4.251372115392014 zm-1.1876493389789533,4.712736192710219 c-1.4206275293087676,-0.057727825708208134 -2.5538806659536766,-1.13589441042253 -2.5538806659536766,-2.4573793604623266 c0,-1.3088947739538506 1.1119056204760998,-2.3792726294206306 2.5142791951527226,-2.455265663878807 c1.0925611530428507,-3.012179307420049 4.182398119280786,-5.18415097320821 7.82333883512634,-5.18415097320821 c3.863741865346065,0 7.106933407718008,2.446528614639927 8.000755883631314,5.748078016245832 l9.847612121020587,-1.6062995353190668 c-1.7274887708991937,-7.61236316684118 -9.063109508489257,-13.332744582172012 -17.84876278970156,-13.332744582172012 c-4.740362068111971,0 -9.057728135230391,1.6654979269416297 -12.300654330273877,4.394720582126663 c0.26387497438010876,0.3810599831568618 0.41683152952142954,0.83390317459999 0.41683152952142954,1.3193679782537955 c0,1.3581990766243972 -1.1971791912022585,2.459735422029504 -2.6732740199879945,2.459735422029504 c-0.34793183052699356,0 -0.6798942822010121,-0.060784482860823316 -0.984464476126209,-0.1719656972927333 c-1.3090392698627722,1.957467340915361 -2.1929241647309947,4.181304815460561 -2.5348112536779763,6.562323723295384 c0.9593470863274673,0.3736446269922526 1.6318601824770835,1.2478420222351951 1.6318601824770835,2.266109024250156 c0,1.0132017525039256 -0.6656658406981695,1.882970478500034 -1.6165638797743456,2.2601874581629544 c0.39280788846682174,2.619874958651604 1.4426610653999348,5.047101018591855 2.9927522034523317,7.135298662061983 c0.4183071195431026,-0.25046336841249117 0.9181244080684912,-0.3957912484289034 1.454475493402408,-0.3957912484289034 c1.476221030563906,0 2.6734002217661645,1.1015653756089236 2.6734002217661645,2.459854669174412 c0,0.5677810631217306 -0.209064571338227,1.0899585046317353 -0.5599767053958362,1.5063338051677633 c3.137376205291442,2.3498894481003125 7.139959442282034,3.7597381701179473 11.500425034616821,3.7597381701179473 c8.749132428175894,0 16.059642247853276,-5.6730685846420945 17.826331232617704,-13.238607819201375 l-9.84277438619076,-1.6359305899181265 c-0.9177199151897429,3.268564241919741 -4.144537585829964,5.683820627771517 -7.983162061377287,5.683820627771517 c-3.5979803361794747,0 -6.657716560352491,-2.1210565589878994 -7.783737364325384,-5.0775243744458445 zm7.783342579275726,-20.44638194825602 c9.586956909955314,-0.34884181634281375 17.928247258347074,6.682179758119019 19.5578455166462,15.32701090719082 l-11.367217439787497,1.8185570712893109 c0.043008918811527776,0.5467649820326813 -0.009287156496056331,1.0941394494726684 -0.07389275908970248,1.641639863335367 l11.152214912989248,1.8808624390844373 c-1.429762596482415,8.60885468740982 -9.513769586446147,15.205416930832039 -19.26898906207461,15.205416930832039 c-4.762389132317077,0 -9.125540557366753,-1.5729183738782786 -12.51107476174167,-4.183655368732656 c-0.3365348391753869,0.14050380450631456 -0.7095743516720325,0.218385737559483 -1.1027737892454827,0.218385737559483 c-1.4762242665069358,0 -2.6734131655382845,-1.101565524481764 -2.6734131655382845,-2.4597571574641566 c0,-0.4350368087863008 0.12302731805699144,-0.8434063234739443 0.3384084501897481,-1.1982980342921126 c-1.738086484322394,-2.2710306114705094 -2.9174058587535603,-4.930088008395315 -3.3547849793267868,-7.807812214801682 c-1.3893375781803294,-0.08796717473185303 -2.4875396271130494,-1.1525735279342377 -2.4875396271130494,-2.4534392918766503 c0,-1.2960348402816706 1.0905416009978375,-2.35865969598253 2.4727746662558348,-2.4527961612074853 c0.37681359285251664,-2.5627840109532776 1.3490529998057461,-4.930850683955067 2.785666087682638,-7.006552536719863 c-0.4332118731392125,-0.4370218792359879 -0.6977534517834978,-1.0188791671333883 -0.6977534517834978,-1.656945182278775 c0,-1.358313410965582 1.1971791912022585,-2.4598497563706894 2.6734002217661645,-2.4598497563706894 c0.5382344041773681,0 1.039122789845682,0.14691367350899295 1.4586433880250282,0.3986007766669785 c3.4624719858558324,-2.8535344541123973 8.05889607205105,-4.628227631799209 13.098446960829355,-4.8114633008320205 " style="fill:#1d3c85;fill-opacity:1;fill-rule:evenodd;stroke:none;stroke-width:4.14988852" id="path124" inkscape:connector-curvature="0" inkscape:export-filename="C:\Users\suitedoalex\sites\ufrrj-logo-7.png" inkscape:export-xdpi="30.118164" inkscape:export-ydpi="30.118164" class=""/><path d="M33.042639750393306,20.93250932078374 V58.62237797612003 h-2.117193390000261 V20.928688648215815 c-7.19366962469372,-1.7509899418342378 -11.98305622970996,-6.943420626916587 -8.154091044107142,-14.135526782789375 c2.142022780869334,3.8787032009936753 3.8496299177923015,7.014827186917439 7.599887261076799,9.140928450964442 c-1.6996823124425346,-9.463535895427565 -1.5191975899451338,-15.038862463530698 1.5816383466517199,-20.763335797744087 c3.2135179447869837,6.103190952104367 3.3087290965582254,11.77760132765414 1.4358138099484858,20.86281620243672 c3.8751550364128216,-2.12710109404101 5.602498189875666,-5.300769023760005 7.778375406724701,-9.240408855657071 c4.112699142357944,7.725523199063493 -1.1731523142046223,11.846167393866182 -8.124430390294302,14.139347455357305 " style="fill:#008940;fill-opacity:1;fill-rule:evenodd;stroke:none;stroke-width:4.14988852" id="path126" inkscape:connector-curvature="0" inkscape:export-filename="C:\Users\suitedoalex\sites\ufrrj-logo-7.png" inkscape:export-xdpi="30.118164" inkscape:export-ydpi="30.118164" class=""/><path d="m31.966187121753727,27.724551279971525 c1.4621220267822619,0 2.6474835540390163,1.091026220640821 2.6474835540390163,2.435996456695309 c0,1.3453376542238167 -1.1853615272567544,2.436392458449934 -2.6474835540390163,2.436392458449934 c-1.462134970554382,0 -2.647496497811136,-1.0910548042261174 -2.647496497811136,-2.436392458449934 c0,-1.344970236054488 1.1853615272567544,-2.435996456695309 2.647496497811136,-2.435996456695309 " style="fill:#1d3c85;fill-opacity:1;fill-rule:evenodd;stroke:none;stroke-width:4.14988852" id="path128" inkscape:connector-curvature="0" inkscape:export-filename="C:\Users\suitedoalex\sites\ufrrj-logo-7.png" inkscape:export-xdpi="30.118164" inkscape:export-ydpi="30.118164" class=""/><path d="m68.93164902265276,37.828252893081036 h0.8252075399055082 v3.3779091098692087 c0,0.588796846465099 0.11910535510464995,0.9922208054051362 0.35827390445082485,1.2107905497949631 c0.23741466822392351,0.21991912781235357 0.5701893415984686,0.3295395593888172 0.9980295493079053,0.3295395593888172 c0.2695087511953123,0 0.4979339696819379,-0.04307605853277136 0.6828584060164776,-0.12798270541816706 c0.1865262281343827,-0.08521630239277157 0.33155472285224036,-0.2248009659844044 0.4336098941319002,-0.4175016724441075 c0.10164420651485194,-0.19364843095968087 0.1526620843255919,-0.516008448762583 0.1526620843255919,-0.9688504492229905 V37.828407720834726 h0.7232785704040177 v3.392630549533805 c0,0.5813412946336679 -0.07774676723841435,0.9998535159162687 -0.23340209886674207,1.2566058685852897 c-0.15565209568529806,0.2568726419238093 -0.37722358683441554,0.4606295387252284 -0.6600385357690248,0.6112763475721799 c-0.2844135047914224,0.1505777318491528 -0.6616209119106877,0.22602440298421908 -1.131373053744488,0.22602440298421908 c-0.5002185454611073,0 -0.9040286402298774,-0.07758329413595878 -1.2139640276987895,-0.23457625441003335 c-0.3085859992254089,-0.15699921293335778 -0.5419783902630607,-0.37166312949072783 -0.6992290418051709,-0.6444800525875877 c-0.15684615866336238,-0.2727535032669838 -0.2359520219743701,-0.6850345029550078 -0.2359520219743701,-1.2370892347415712 zM74.55737481159761,43.1811612050053 V37.828252893081036 h0.8089501621228647 l2.9260108784588965,4.133382797110199 V37.828252893081036 h0.707289775892863 V43.1811612050053 h-0.805044378885673 L75.2642633305548,39.04683127888649 V43.1811612050053 zm5.943586000894241,0 V37.828252893081036 h0.8253337416836777 V43.1811612050053 zm3.909802278434869,0 l-2.194943393181705,-5.352908311924281 h0.8264113107126626 l1.7990581228933673,4.383840210609088 l1.738762796415661,-4.383840210609088 h0.7221945294889728 l-2.111944690405625,5.352908311924281 zm3.6774874564262006,0 V37.828252893081036 h3.2588923379534296 v0.5677804676303703 h-2.4339760329206204 v1.7187350034286886 h2.0410419426756286 v0.5603258090359791 h-2.0410419426756286 v1.9383151477841698 h2.6029116747440053 v0.567751884045074 zm4.363144953163616,0 V37.828252893081036 h1.7617185762703729 c0.6519778016813339,0 1.1027705533024525,0.13469687050597837 1.3524138502366883,0.40394114318649027 c0.24817417879862308,0.26756766675548044 0.3726479633900171,0.5763960366317407 0.3726479633900171,0.9232241989395712 c0,0.20250457847062833 -0.04419327396050216,0.4024419936868389 -0.13132104004284242,0.6013745172324791 c-0.08862924364825318,0.19762238300376125 -0.21311273606873754,0.372667723415618 -0.3756023793763932,0.5271279100613353 c-0.16222753192222675,0.15424804284859622 -0.3838022590143746,0.2849759634379218 -0.6643326321698153,0.39117351067516287 l1.9401970140891833,2.5060670318292435 h-1.0117208242677709 l-1.6569743363327958,-2.264006642002482 h-0.7701512051933472 v2.264006642002482 zm0.8168620428311775,-2.8321202870489617 h0.2672209394731132 c0.6102050131072595,0 1.0235481960423658,-0.116984099090996 1.236800077661392,-0.35055552137959484 c0.21351075706142594,-0.2342665691280896 0.3208016841636012,-0.4911451659655019 0.3208016841636012,-0.7702856118177908 c0,-0.16676884419106344 -0.040323086096640356,-0.31233789820841307 -0.11950661204036811,-0.4356742822875425 c-0.08036788109270203,-0.12462294316314008 -0.20517820375921514,-0.2211366098985646 -0.3741235534116901,-0.2913911918628429 c-0.16906184360155466,-0.07055351862716855 -0.44005589264763,-0.1050720685662024 -0.8119013421662108,-0.1050720685662024 h-0.5193009015089278 zm3.9154425271361313,2.73092546272992 v-0.7519870853262118 c0.4693411770689922,0.1976173808763338 0.8131180567454852,0.31634168436964605 1.02891015364305,0.3568446247343964 c0.21619982571934354,0.04060685360712975 0.4172360224001768,0.06169677562486118 0.6026911533916349,0.06169677562486118 c0.3338295908023201,0 0.5994552103616502,-0.08368856930782448 0.7928319298905105,-0.2516805527530223 c0.1945934341081349,-0.16676854644538316 0.29125752429983964,-0.36771680824576813 0.29125752429983964,-0.6010127562310743 c0,-0.17654413261669216 -0.050998462152560105,-0.3397686122310237 -0.15306981314737012,-0.48891656932400535 c-0.10353076130133324,-0.14691307801763265 -0.3608335353875427,-0.3260880914642982 -0.7689312546710428,-0.5383682561062355 l-0.40233126880406794,-0.2134976467281482 c-0.5382182244622182,-0.278865031098133 -0.8991941413430802,-0.5345201611611631 -1.0841023979624702,-0.766345364584706 c-0.1838371594764652,-0.2309125533646893 -0.27638189419100023,-0.48794032078786653 -0.27638189419100023,-0.7706531193108233 c0,-0.25290458524419707 0.07386039965940272,-0.4899274159081788 0.21995351963412552,-0.7119489259682049 c0.14626138901228214,-0.2223603446440591 0.34229805371179034,-0.3951478200140581 0.5889901706026793,-0.5211719543480736 c0.24697364393449855,-0.12492158208034969 0.5568993235743203,-0.1878417947050251 0.9310228769860106,-0.1878417947050251 c0.45228775730097265,0 0.9272497674130482,0.06933573879527728 1.428960082610978,0.20616923230214834 v0.6949020925414892 c-0.43576179624684064,-0.1563846658494891 -0.7349570887992335,-0.25168085049870226 -0.8975794057711178,-0.2837528241837876 c-0.16209485825799758,-0.03331267993434937 -0.3247268830589725,-0.04950885395282292 -0.48572799257283567,-0.04950885395282292 c-0.33800395731100025,0 -0.5888445531663301,0.08033416647504037 -0.7513406683600456,0.24221521758044923 c-0.1621984084349572,0.16157645727459594 -0.24399334040388257,0.327064101803892 -0.24399334040388257,0.49487237616442603 c0,0.11576084073858976 0.03877954127133766,0.23335341290157918 0.11535489713289765,0.3529965595638923 c0.07631648041916114,0.11972919516388218 0.18115456270460809,0.2220497958996428 0.30981242163377265,0.30754240628361096 c0.13013344895083792,0.08522210843353496 0.3087186728896381,0.18754270916929566 0.535134370754643,0.30483116389455983 l0.4203263479938124,0.2174721644890205 c0.5419816262060911,0.28252959560594926 0.9040221683438175,0.5404416676992282 1.0867817587912978,0.7739790874311511 c0.18114485487551815,0.2357993936641677 0.2722042917392898,0.5072437091754483 0.2722042917392898,0.8132926231273309 c0,0.41750703186635024 -0.17281877345936725,0.7790557406017369 -0.5192847217937776,1.0851046545536205 c-0.34753380953430546,0.3064452134521885 -0.8572983869338673,0.4595326436394853 -1.532083115090533,0.4595326436394853 c-0.20787698024622236,0 -0.40931766980580486,-0.012234369998144626 -0.6037687224206201,-0.03848124719640325 c-0.19605608035768793,-0.02441216831705719 -0.4979372056249683,-0.09010439322410624 -0.9056369039157798,-0.19608935004570657 zm4.688929989593393,0.10110282090386923 V37.82816088966587 h0.8253434495127675 V43.18106920159014 zm2.3239960371605277,0 V37.82816088966587 h1.9333465226947055 c0.7473119192877147,0 1.3121295954564078,0.10018427548054805 1.6974042085494252,0.29872020178020314 c0.3848701202142695,0.19853592629965577 0.6867415376524592,0.48891656932400535 0.9054977583654905,0.8714804659114002 c0.2186300189348618,0.38179422400415886 0.32860354280889464,0.8419415933749209 0.32860354280889464,1.3789315549530854 c0,0.5099317571760136 -0.10058281720101697,0.9764888169020461 -0.30038611958742695,1.399946593932254 c-0.19983889775973993,0.4248074581984139 -0.5047909329624756,0.7642086522601091 -0.9139597493889007,1.0198641098433872 c-0.4091817601985456,0.25534520658454263 -0.9766852690821256,0.38390256116543536 -1.70493101203717,0.38390256116543536 zm0.8249357206909895,-0.567751884045074 h1.0573735085347962 c0.5500488321798428,0 0.9619131891502452,-0.08032850930711707 1.2357257445754382,-0.24098612341271158 c0.2736604661027829,-0.1603586774427048 0.48826820785137387,-0.41329184627219767 0.6424220619137883,-0.7614920206742471 c0.15456158288419303,-0.34710387480766725 0.2323407095529075,-0.7333264703129795 0.2323407095529075,-1.1607299730967873 c0,-0.37651596723353076 -0.06701961609401487,-0.7182666724574389 -0.19997480736699957,-1.0282895682279702 c-0.1338741990935003,-0.3096561028671307 -0.35021317036313276,-0.5589820827813761 -0.6494149348015855,-0.7456978033240017 c-0.2975935007525504,-0.18631971878800116 -0.8449403205023553,-0.2800884680979473 -1.6383126528788734,-0.2800884680979473 h-0.6801596295294708 zm4.520256459155437,0.567751884045074 l2.308016950478463,-5.352908311924281 h0.8141891538884101 l2.2740298408345327,5.352908311924281 h-0.8919423930128842 l-0.6348952584260434,-1.4826016879842119 h-2.464335650427938 l-0.638804277606265,1.4826016879842119 zm1.647858684817329,-2.046895851445483 h1.980209449654945 l-0.9863445590266303,-2.307014367901655 zm4.5911656787714925,2.046895851445483 V37.82816088966587 h1.9333497586377355 c0.7471824815665153,0 1.3121328313994385,0.10018427548054805 1.6973977366633652,0.29872020178020314 c0.3848701202142695,0.19853592629965577 0.6866185718173199,0.48891656932400535 0.9055171740236703,0.8714804659114002 c0.21849087338457257,0.38179422400415886 0.3286003068658648,0.8419415933749209 0.3286003068658648,1.3789315549530854 c0,0.5099317571760136 -0.1005860531440469,0.9764888169020461 -0.3003893555304571,1.399946593932254 c-0.1998324258736803,0.4248074581984139 -0.5047941689055058,0.7642086522601091 -0.9139694572179906,1.0198641098433872 c-0.40916558048339513,0.25534520658454263 -0.976814706803325,0.38390256116543536 -1.7049245401511102,0.38390256116543536 zm0.8249324847479594,-0.567751884045074 h1.057396160136006 c0.5500261805786334,0 0.9619034813211551,-0.08032850930711707 1.2355801271390878,-0.24098612341271158 c0.27382226325428244,-0.1603586774427048 0.48840088151560307,-0.41329184627219767 0.6425676793501378,-0.7614920206742471 c0.15456158288419303,-0.34710387480766725 0.23216920457231818,-0.7333264703129795 0.23216920457231818,-1.1607299730967873 c0,-0.37651596723353076 -0.06681898762615576,-0.7182666724574389 -0.1998324258736803,-1.0282895682279702 c-0.13388067097956022,-0.3096561028671307 -0.35022287819222253,-0.5589820827813761 -0.6494181707446153,-0.7456978033240017 c-0.2975708491513405,-0.18631971878800116 -0.8450697582235548,-0.2800884680979473 -1.6383158888219036,-0.2800884680979473 h-0.6801758092446208 zm5.204739308572967,0.567751884045074 V37.82816088966587 h3.2587726080613217 v0.567751884045074 h-2.4339760329206204 v1.7187637656613932 h2.041171380396828 v0.5603259281342508 h-2.041171380396828 v1.9383148500384892 h2.6030378765221753 v0.567751884045074 zm6.909650904951957,0 V37.82816088966587 h3.303357431128451 v0.567751884045074 h-2.4784217104374613 v1.7939924274094392 h2.0889824386648534 v0.5604808154370748 h-2.0889824386648534 v2.4306831850326933 zm4.3162852621464065,0 V37.82816088966587 H136.29535264687485 v0.567751884045074 h-2.433966325091531 v1.7187637656613932 h2.0410419426756286 v0.5603259281342508 h-2.0410419426756286 v1.9383148500384892 h2.6029084388009758 v0.567751884045074 zm4.363164368821796,0 V37.82816088966587 h1.9333788821250053 c0.7471177627059157,0 1.3120940000830779,0.10018427548054805 1.6973589053470055,0.29872020178020314 c0.38489277181547943,0.19853592629965577 0.6866347515324698,0.48891656932400535 0.9054848145933705,0.8714804659114002 c0.21853617658699223,0.38179422400415886 0.3286488460113142,0.8419415933749209 0.3286488460113142,1.3789315549530854 c0,0.5099317571760136 -0.10062488446040684,0.9764888169020461 -0.30043465873287695,1.399946593932254 c-0.19980977427247024,0.4248074581984139 -0.5047359219309663,0.7642086522601091 -0.9139726931610206,1.0198641098433872 c-0.40911056945188556,0.25534520658454263 -0.9767694036009051,0.38390256116543536 -1.70491483232202,0.38390256116543536 zm0.8249583722921994,-0.567751884045074 h1.057357328819646 c0.5500585400089334,0 0.961916425093275,-0.08032850930711707 1.2356933851451373,-0.24098612341271158 c0.27371871307732254,-0.1603586774427048 0.4883232188828835,-0.41329184627219767 0.6424414775719679,-0.7614920206742471 c0.1545551109981331,-0.34710387480766725 0.23233100172381757,-0.7333264703129795 0.23233100172381757,-1.1607299730967873 c0,-0.37651596723353076 -0.06703903175219475,-0.7182666724574389 -0.19993597605063979,-1.0282895682279702 c-0.13389361475168035,-0.3096561028671307 -0.35024552979343243,-0.5589820827813761 -0.649427878573705,-0.7456978033240017 c-0.2975643772652808,-0.18631971878800116 -0.8449403205023553,-0.2800884680979473 -1.6383126528788734,-0.2800884680979473 h-0.6801466857573508 zm5.204694005370547,0.567751884045074 V37.82816088966587 h3.2587693721182904 v0.567751884045074 h-2.4339339656612307 v1.7187637656613932 h2.041177852282888 v0.5603259281342508 h-2.041177852282888 v1.9383148500384892 h2.603031404636115 v0.567751884045074 zm4.362999335727266,0 V37.82816088966587 h1.7617800591879427 c0.6520554643140527,0 1.1027381938721528,0.13439257442084554 1.3525465239009176,0.40391255960119343 c0.24812563965317336,0.26756766675548044 0.3726544352760771,0.576424620217037 0.3726544352760771,0.9232527825248676 c0,0.20250457847062833 -0.04431623979564155,0.4024419936868389 -0.13139223078950196,0.601374725654455 c-0.08876838919854257,0.1976223532291931 -0.21323246596084727,0.37266769364104935 -0.3757188733254726,0.5270991180540625 c-0.16223076786525695,0.1539377918498601 -0.383640461862875,0.28497030626999875 -0.664164363132256,0.391202392006139 l1.9401840703170634,2.506066734083563 h-1.0118534979320004 l-1.6570325833073352,-2.264006642002482 h-0.769969992383668 v2.264006642002482 zm0.8170335478117666,-2.8321488706342577 h0.2671044455240336 c0.6102309006514995,0 1.0237067572508343,-0.11698406931642813 1.2368130214335127,-0.350521161528103 c0.21348163357415603,-0.23427216674687668 0.32090847028359054,-0.4911795258169936 0.32090847028359054,-0.7702913880839859 c0,-0.16676854644538316 -0.040575489652979226,-0.31237243670731274 -0.11947425261006822,-0.4356739845418624 c-0.0803970045799719,-0.12462294316314008 -0.205181439702245,-0.2211366098985646 -0.3742788786771297,-0.29139148960852324 c-0.16890975427914554,-0.07055351862716855 -0.44007207236277956,-0.10507177082052209 -0.8119110499953008,-0.10507177082052209 h-0.5191617559586386 zm3.589100908505197,2.8321488706342577 l2.308033130193613,-5.352908311924281 h0.8142215133187098 l2.274007189233323,5.352908311924281 h-0.8918129552916848 l-0.6349502694575536,-1.4826016879842119 h-2.4644521443770175 l-0.6386360085687063,1.4826016879842119 zm1.647988122538528,-2.046895851445483 h1.9801285510791955 l-0.9862571885648208,-2.307014367901655 zm4.591088016138774,2.046895851445483 V37.82816088966587 h0.8249001253176595 v4.785156427879207 h2.5842402834609937 v0.567751884045074 zm6.838566944412282,0 V37.82816088966587 h1.7615923744922035 c0.6521169472316228,0 1.1027996767897226,0.13439257442084554 1.3525497598439478,0.40391255960119343 c0.24831008840588248,0.26756766675548044 0.372651199333047,0.576424620217037 0.372651199333047,0.9232527825248676 c0,0.20250457847062833 -0.04431623979564155,0.4024419936868389 -0.13145694965010163,0.601374725654455 c-0.08863895147734316,0.1976223532291931 -0.21310626418267756,0.37266769364104935 -0.3757156373824428,0.5270991180540625 c-0.1619816002519481,0.1539377918498601 -0.38364369780590535,0.28497030626999875 -0.664164363132256,0.391202392006139 l1.9401840703170634,2.506066734083563 h-1.0117272961538308 l-1.6570973021679354,-2.264006642002482 h-0.7700314753012377 v2.264006642002482 zm0.8169073460335972,-2.8321488706342577 h0.26723064730220314 c0.6101694177339299,0 1.0235190725550953,-0.11698406931642813 1.2367483025729122,-0.350521161528103 c0.2134233865996165,-0.23427216674687668 0.320659302670282,-0.4911795258169936 0.320659302670282,-0.7702913880839859 c0,-0.16676854644538316 -0.039947716705162103,-0.31237243670731274 -0.11947101666703819,-0.4356739845418624 c-0.08033875760543212,-0.12462294316314008 -0.205181439702245,-0.2211366098985646 -0.37415591284199035,-0.29139148960852324 c-0.1689712371967152,-0.07055351862716855 -0.44007207236277956,-0.10507177082052209 -0.8120372517734702,-0.10507177082052209 h-0.5191617559586386 zm4.225238769054754,-2.520759441290023 h0.8253337416836777 v3.377909407614889 c0,0.5887620102205207 0.11916360207918962,0.9921862669062371 0.3581121072993258,1.2107899543036031 c0.23769943121056183,0.21991912781235357 0.5703446668639071,0.3295398571344973 0.9981816386303146,0.3295398571344973 c0.2695346387395521,0 0.4978077679037686,-0.04307605853277136 0.6828907654467776,-0.12828700150329994 c0.18651328436226278,-0.08521630239277157 0.3315773744534506,-0.2248009659844044 0.43357429875857084,-0.4175016724441075 c0.10156330793910237,-0.1936481332140012 0.1526847359268017,-0.5159798651772863 0.1526847359268017,-0.9688218656376948 V37.828040302665386 h0.7232753344609884 v3.3926302517881246 c0,0.5813412946336679 -0.07765292489054473,0.9998535159162687 -0.23339239103765222,1.2566061663309698 c-0.15568121917256778,0.256872344178129 -0.3771523960877561,0.4606354936388318 -0.6601064905726548,0.611247466241204 c-0.2841416855769039,0.15057743410347282 -0.6615432492779681,0.22571415198548284 -1.1312597957384385,0.22571415198548284 c-0.5002444330053472,0 -0.9040512918310872,-0.07757733922235532 -1.2139704995848495,-0.23457655215571332 c-0.3087380885478181,-0.15699296027407442 -0.5420042778073006,-0.37165717457712466 -0.699245221520321,-0.6445026812592806 c-0.1569885401566818,-0.27275916043490694 -0.23601674083496973,-0.6850115765376347 -0.23601674083496973,-1.2370892347415712 zm5.625848754780036,5.352908311924281 V37.82816088966587 h1.7615923744922035 c0.6521137112885924,0 1.1027349579291228,0.13439257442084554 1.3525465239009176,0.40391255960119343 c0.24831008840588248,0.26756766675548044 0.372651199333047,0.576424620217037 0.372651199333047,0.9232527825248676 c0,0.20250457847062833 -0.04431623979564155,0.4024419936868389 -0.13145694965010163,0.601374725654455 c-0.08863895147734316,0.1976223532291931 -0.21310626418267756,0.37266769364104935 -0.37577712030001253,0.5270991180540625 c-0.1619816002519481,0.1539377918498601 -0.3836372259198452,0.28497030626999875 -0.664164363132256,0.391202392006139 l1.9401840703170634,2.506066734083563 h-1.0118534979320004 l-1.6569711003897656,-2.264006642002482 h-0.7699667564406381 v2.264006642002482 zm0.8168458631160276,-2.8321488706342577 h0.2672274113591731 c0.6102309006514995,0 1.0235805554726651,-0.11698406931642813 1.236686819655343,-0.350521161528103 c0.21373403713049507,-0.23427216674687668 0.32096995320116045,-0.4911795258169936 0.32096995320116045,-0.7702913880839859 c0,-0.16676854644538316 -0.039947716705162103,-0.31237243670731274 -0.11947101666703819,-0.4356739845418624 c-0.08033552166240215,-0.12462294316314008 -0.205181439702245,-0.2211366098985646 -0.37415267689896015,-0.29139148960852324 c-0.16897447313974528,-0.07055351862716855 -0.44001058944521054,-0.10507177082052209 -0.8120404877165003,-0.10507177082052209 h-0.5191552840725776 zm3.5892853572579053,2.8321488706342577 l2.307845445497874,-5.352908311924281 h0.8142247492617399 l2.2741301550684625,5.352908311924281 h-0.8919359211268243 l-0.6348887865399838,-1.4826016879842119 h-2.464455380320047 l-0.6386942555432454,1.4826016879842119 zm1.6478651567033886,-2.046895851445483 h1.9801900339967653 l-0.9863833903429899,-2.307014367901655 zm4.5911494990563435,2.046895851445483 V37.82816088966587 h0.8247739235394903 v4.785156427879207 h2.584366485239163 v0.567751884045074 zM68.97999077557766,51.6151194843925 V46.262182737755744 h1.9333497586377355 c0.7471727737374256,0 1.3121263595133779,0.10018397773486785 1.6973977366633652,0.2987199040345229 c0.3847277387209499,0.19884052013046863 0.6866185718173199,0.48906603765544937 0.9055009943085205,0.8714804659114002 c0.2184941093276025,0.38179422400415886 0.32847086914466483,0.8420620017279812 0.32847086914466483,1.3789314060802453 c0,0.5099320549216939 -0.10048250296708747,0.9765179959787026 -0.30025668186622795,1.399946593932254 c-0.1998324258736803,0.42492864069024305 -0.5047876970194457,0.7642434885046889 -0.9139565134458708,1.0200138759205124 c-0.4091817601985456,0.2553508637524656 -0.976824414632415,0.3837870358415298 -1.7049277760941401,0.3837870358415298 zm0.8247933391976702,-0.5677804676303703 h1.0575191259711454 c0.5500488321798428,0 0.9619099532072151,-0.08032880705279721 1.2355963068542377,-0.24098612341271158 c0.2736604661027829,-0.1603595706797453 0.48839440962954295,-0.41332042985749384 0.6425579715210472,-0.7614006127504351 c0.154564818827223,-0.34706903856308763 0.23216920457231818,-0.7334527144813712 0.23216920457231818,-1.160729377605427 c0,-0.3766080897469747 -0.06699049260674496,-0.7183930357241028 -0.1998033023864103,-1.0284106018469585 c-0.13401010870075952,-0.30962722153615463 -0.3502261141352527,-0.5589877399492993 -0.6494084629155251,-0.7456689219930254 c-0.2976064445246705,-0.18631971878800116 -0.8450794660526448,-0.2800884680979473 -1.6383255966509933,-0.2800884680979473 h-0.68030524696582 zm7.582442292202153,0.7012309747191614 c-0.5504403812864714,0 -1.0293114105787682,-0.11392821607714947 -1.4370078729265503,-0.3396822659837747 c-0.40648621965456827,-0.2269378867309775 -0.723285042290078,-0.558005476950422 -0.9475391302110527,-0.992307151652385 c-0.22373957297920774,-0.4360476553704745 -0.3353181245961128,-0.9284445739499748 -0.3353181245961128,-1.4776853113132613 c0,-0.5309418833514595 0.10739124133610504,-1.0136900554194033 0.320539572778172,-1.448238263544546 c0.21351075706142594,-0.4358294077869107 0.5286883722389136,-0.771658546923618 0.9448532974961654,-1.0073951162492703 c0.41709364090685763,-0.23579998915552802 0.90134604345802,-0.35452429264883967 1.4544657855733183,-0.35452429264883967 c0.55273790083776,0 1.0368446859525726,0.11881660465416438 1.4540645286376,0.35452429264883967 c0.41603225159302365,0.23579998915552802 0.7312066308274804,0.5715657084623594 0.9448532974961654,1.0073951162492703 c0.21311273606873754,0.4345482081251438 0.3204036631709129,0.9172963801930866 0.3204036631709129,1.448238263544546 c0,0.5281046647651291 -0.10586064028292207,1.008377081502467 -0.31665644114219027,1.4406052552877333 c-0.21055310513202,0.4332044818705413 -0.5218508246165554,0.7691539102620362 -0.9349157164510821,1.0097496890880466 c-0.4133399469920761,0.23946434524136798 -0.9017440644507082,0.35931978457364155 -1.467768747369586,0.35931978457364155 zm0,-0.56802729879923 c0.5861684282805326,0 1.0410028727461031,-0.20128173696217413 1.3615521533533659,-0.6035745600632482 c0.3205363368351421,-0.40244765085476214 0.48155039012112494,-0.9505572523790867 0.48155039012112494,-1.6458613015888033 c0,-0.690961726210132 -0.16221782409313704,-1.2367218165722427 -0.4857182847437457,-1.6355628740031176 c-0.32322540549305945,-0.3985998834299377 -0.7753740172437427,-0.5986578856466173 -1.357387494673775,-0.5986578856466173 c-0.5824017905936312,0 -1.0346895478946028,0.20005800221667974 -1.3577855156664629,0.5986578856466173 c-0.3236234264857476,0.39884105743087417 -0.4857053409716254,0.9446011477929857 -0.4857053409716254,1.6355628740031176 c0,0.6953040492097173 0.16099463762780286,1.2434136507340412 0.481411244570836,1.6458613015888033 c0.3205331008921122,0.4024134101015423 0.775509926851002,0.6035745600632482 1.3620828480102833,0.6035745600632482 zm6.422463502072599,0.43457679171044006 V46.262182737755744 h1.7617282840994628 c0.6519680938522436,0 1.1027673173594228,0.13469687050597837 1.3524170861797182,0.40394084544081027 c0.24816447096953295,0.2675679645011605 0.3726447274469874,0.5765166236322096 0.3726447274469874,0.9232527825248676 c0,0.20250457847062833 -0.044196509903532126,0.4024134101015423 -0.13135987135920224,0.6013801744004028 c-0.08862924364825318,0.19761708313065393 -0.21311273606873754,0.3726337804080786 -0.3757285811545626,0.5270938181809559 c-0.16209809420102758,0.1539431512721033 -0.3836663494071152,0.28528025952305436 -0.664196722562556,0.39120804917406243 l1.9401970140891833,2.50606107691564 h-1.0117208242677709 l-1.6571070099970249,-2.264000984834559 h-0.7700120596430579 v2.264000984834559 zm0.8168749866032973,-2.8321488706342577 h0.2672241754161432 c0.6102114849933192,0 1.0235481960423658,-0.11698397999272399 1.236796841718362,-0.35054968556426336 c0.21351722894748595,-0.23427225607058072 0.3208016841636012,-0.49102431099392124 0.3208016841636012,-0.7701650545918903 c0,-0.16676884419106344 -0.040323086096640356,-0.312464440122485 -0.1195357355276378,-0.4358005264559346 c-0.08033228571937215,-0.12462294316314008 -0.20517820375921514,-0.22083231381343166 -0.3741170815256303,-0.29139178735420324 c-0.1690650795445846,-0.07055322088148842 -0.44006236453368996,-0.10507177082052209 -0.8120469596025599,-0.10507177082052209 h-0.5191488121865189 zm4.269422335186166,2.8321488706342577 V46.262182737755744 h0.8253305057406476 v5.352936746636737 zm4.701556639296394,0.1334793884197673 c-0.5504468531725307,0 -1.0293243543508879,-0.11392821607714947 -1.437011108869581,-0.3396769065615318 c-0.40650239936971816,-0.22694354389890073 -0.7232915141761378,-0.5580111341183449 -0.9474064565468233,-0.9923125110746284 c-0.22386901070040757,-0.43604170045687096 -0.3353278324252026,-0.9284392145277315 -0.3353278324252026,-1.4776799518910182 c0,-0.5309475405193828 0.10725856767187558,-1.013689757673723 0.32041337100000294,-1.448238263544546 c0.2136434307256552,-0.4358347672091537 0.5288275177892032,-0.7716642040915412 0.9448500615531354,-1.0074007734171928 c0.4172198426850271,-0.2357996914098474 0.90134604345802,-0.3545239949031595 1.4544722574593774,-0.3545239949031595 c0.5527281930086704,0 1.036964415844682,0.11881600916280399 1.45407100052366,0.3545239949031595 c0.4161552174281621,0.23579998915552802 0.7313393044917106,0.5715660062080395 0.9448435896670754,1.0074007734171928 c0.21311273606873754,0.43454850587082394 0.320571932208472,0.9172907230251633 0.320571932208472,1.448238263544546 c0,0.5280993053428863 -0.10585740433989202,1.0083717220802237 -0.3167858788633899,1.44059959811981 c-0.21043337523991026,0.43320418412486084 -0.5218508246165554,0.7691539102620362 -0.9349124805080521,1.0097499868337263 c-0.41334965482116565,0.2394640474956877 -0.9017537722797981,0.35931978457364155 -1.4677752192556457,0.35931978457364155 zm0,-0.5680275965449106 c0.586161956394473,0 1.0411387823533624,-0.20128143921649388 1.3616718832454746,-0.6035742623175679 c0.3204036631709129,-0.40244794860044225 0.4814274242859854,-0.9505572523790867 0.4814274242859854,-1.64585564442088 c0,-0.6909673833780557 -0.16209809420102758,-1.2367218165722427 -0.48572152068677554,-1.635568828916721 c-0.32309273182883014,-0.39859363077065446 -0.7753772531867725,-0.5986575879009371 -1.3573810227877154,-0.5986575879009371 c-0.5824114984227208,0 -1.0345601101734034,0.20006395713028305 -1.3577919875525228,0.5986575879009371 c-0.3236234264857476,0.39884701234447795 -0.4857182847437457,0.944601445538666 -0.4857182847437457,1.635568828916721 c0,0.6952983920417934 0.1610043454568927,1.2434076958204376 0.4815536260641548,1.64585564442088 c0.320406899113943,0.4024131123558624 0.7753804891298025,0.6035742623175679 1.3619598821751433,0.6035742623175679 zm6.422460266129568,0.4345830443697241 V46.26221132134104 h1.9333432867516753 c0.7473119192877147,0 1.3121295954564078,0.10018397773486785 1.6974009726063957,0.29872020178020314 c0.3848701202142695,0.1988402223847884 0.6867447735954899,0.4890713970776928 0.9056401398588099,0.8714804659114002 c0.21849087338457257,0.38179988117208175 0.32847086914466483,0.8420620017279812 0.32847086914466483,1.3789314060802453 c0,0.5099317571760136 -0.10048573891011736,0.9765233554009457 -0.3003893555304571,1.3999525488458575 c-0.1998324258736803,0.4249223880309595 -0.5046517874121861,0.7642372358454054 -0.9139532775028408,1.020013578174832 c-0.4091817601985456,0.2553449088388623 -0.9766885050251557,0.38378137867360723 -1.7049342479801999,0.38378137867360723 zm0.8249292488049295,-0.5677810631217306 h1.0575158900281154 c0.550039124350753,0 0.9619034813211551,-0.08033446422072046 1.2355768911960578,-0.24099178058063508 c0.2736669379888431,-0.1603592729340653 0.48840411745863316,-0.41332072760317345 0.6425806231222578,-0.761400315004755 c0.15455187505510326,-0.34706903856308763 0.23216920457231818,-0.7334467595677676 0.23216920457231818,-1.1607299730967873 c0,-0.3766018370876912 -0.06701638015098484,-0.7183870808104997 -0.19984213370277004,-1.0284103041012784 c-0.1340036368146997,-0.309621266622551 -0.3502164063061626,-0.558981487290016 -0.6494149348015855,-0.7456686242473453 c-0.2977294103598095,-0.18631376387439766 -0.8450665222805247,-0.2800884680979473 -1.6384453265431027,-0.2800884680979473 h-0.6801628654725017 zm5.204736072629937,0.5677810631217306 V46.26221132134104 h3.258766136175261 v0.5677804676303703 h-2.433840123313361 v1.7187351523015286 h2.0410419426756286 v0.560360049789198 h-2.0410419426756286 V51.04737325751535 h2.602905202857946 v0.5677810631217306 zm5.435047845903044,0.9936851186602073 v-0.6728242503569565 c0.3140871023763822,0.09529678014057355 0.5946110036457621,0.1423358336763945 0.8413031205366526,0.1423358336763945 c0.16787101656652065,0 0.31127506788332604,-0.02751170084761658 0.4319951585599377,-0.08521630239277157 c0.12073627039176217,-0.05714781712323902 0.21889536626332062,-0.15058309127139596 0.29381715523655805,-0.2816159034372145 c0.07385716371637271,-0.1319516553348201 0.11160443916114512,-0.3804275713321827 0.11160443916114512,-0.7468000578319874 v-4.702473196860473 h0.8249324847479594 v4.676299862845217 c0,0.6149407036580203 -0.15684939460639233,1.0595402104543088 -0.46947708667625143,1.33482663622249 c-0.31287362374013855,0.2752006750122928 -0.7555053270396362,0.4121949511864554 -1.3269016753882883,0.4121949511864554 c-0.18277253421960035,0 -0.4187148483648804,-0.02751170084761658 -0.707280068063773,-0.07667010813488043 zm3.2937984554178756,-0.9936851186602073 l2.3080234223645233,-5.352942999296021 h0.81417944605932 l2.2740298408345327,5.352942999296021 h-0.891800011519565 l-0.6350441118054228,-1.4826308670608686 h-2.464329178541878 l-0.638810749492325,1.4826308670608686 zm1.6478619207603582,-2.0468101006895942 h1.9802062137119152 l-0.9862151213054311,-2.3071288511156802 zm4.591162442828463,2.0468101006895942 V46.26221132134104 h0.8089598699519546 l2.9261241364649453,4.133382350491679 V46.26221132134104 h0.7071635741146941 v5.352942999296021 h-0.8050508507717331 l-2.930311446745746,-4.134359254068314 v4.134359254068314 zm5.947757131459891,0 V46.26221132134104 h3.25890204578252 v0.5677804676303703 h-2.433966325091531 v1.7187351523015286 h2.041028998903509 v0.560360049789198 h-2.041028998903509 V51.04737325751535 h2.602898730971886 v0.5677810631217306 zm4.358990002313115,0 V46.26221132134104 h0.8251913601903583 v5.352942999296021 zm2.3238504197241787,0 V46.26221132134104 h1.7617250481564328 c0.6521007675164725,0 1.1027737892454827,0.13470252767390176 1.3525594676730375,0.4039470981000936 c0.24818712257074307,0.2675617118418772 0.372651199333047,0.5765166236322096 0.372651199333047,0.9232465298655841 c0,0.2025108311299122 -0.04431623979564155,0.40241966276082597 -0.13133074787193227,0.601380472146083 c-0.08876515325551264,0.1976167853849735 -0.21323570190387722,0.3726334826623983 -0.37577712030001253,0.5270938181809559 c-0.16203984722648787,0.153942853526423 -0.383630754033786,0.28528025952305436 -0.6641578912461964,0.3912077514283821 l1.9401743624879735,2.5060673295749236 h-1.0118502619889702 l-1.6569808082188555,-2.264006939748162 h-0.7700023518139678 v2.264006939748162 zm0.8170076602675269,-2.8321554210392215 h0.2672274113591731 c0.6100626316139404,0 1.023554667928425,-0.11698397999272399 1.2366609321111033,-0.35054909007290297 c0.21364666666868531,-0.23427255381626091 0.32096995320116045,-0.4910246087396017 0.32096995320116045,-0.7701653523375704 c0,-0.16676854644538316 -0.040387804957240085,-0.312464440122485 -0.1195389714706679,-0.43580022871025426 c-0.08036788109270203,-0.12461758374089692 -0.20518467564527476,-0.22083231381343166 -0.37425946301894997,-0.2913861301862801 c-0.16893887776641553,-0.07055887804941158 -0.4399329268124909,-0.10507177082052209 -0.8119142859383308,-0.10507177082052209 h-0.5191520481295483 zm6.651163775716775,2.965599973214409 c-0.5503077076222413,0 -1.0292046244587787,-0.11392821607714947 -1.436875199262321,-0.3396769065615318 c-0.4066156573757672,-0.22694354389890073 -0.7232785704040177,-0.5580111341183449 -0.9475585458692327,-0.9923125110746284 c-0.22384635909919726,-0.43604170045687096 -0.3353278324252026,-0.9284392145277315 -0.3353278324252026,-1.4776799518910182 c0,-0.5309475405193828 0.10730063493126546,-1.013689757673723 0.3205331008921122,-1.448238263544546 c0.2135431164917256,-0.4358347672091537 0.5287077878970933,-0.7716642040915412 0.9447497473192059,-1.0074007734171928 c0.4172198426850271,-0.2357996914098474 0.9014884249513393,-0.3545239949031595 1.4544787293454382,-0.3545239949031595 c0.5527411367807904,0 1.0369417642434726,0.11881600916280399 1.4541648428715295,0.3545239949031595 c0.41603872347908344,0.23579998915552802 0.7312033948844504,0.5715660062080395 0.9447497473192059,1.0074007734171928 c0.2132292300178172,0.43454850587082394 0.3205331008921122,0.9172907230251633 0.3205331008921122,1.448238263544546 c0,0.5280993053428863 -0.10586711216898219,1.0083717220802237 -0.31666291302825045,1.44059959811981 c-0.21054986918898977,0.43320418412486084 -0.5219705545086655,0.7691539102620362 -0.9349480758813821,1.0097499868337263 c-0.41341760962479523,0.2394640474956877 -0.9017375925646482,0.35931978457364155 -1.467836702173215,0.35931978457364155 zm0,-0.5680275965449106 c0.5862590346853723,0 1.0411226026382125,-0.20128143921649388 1.3616557035303247,-0.6035742623175679 c0.3205363368351421,-0.40244794860044225 0.4815795136083952,-0.9505572523790867 0.4815795136083952,-1.64585564442088 c0,-0.6909673833780557 -0.16223076786525695,-1.2367218165722427 -0.4857603520031353,-1.635568828916721 c-0.32321893360699966,-0.39859363077065446 -0.7753351859273828,-0.5986575879009371 -1.3574748651355844,-0.5986575879009371 c-0.5823920827645402,0 -1.0345730539455233,0.20006395713028305 -1.3577919875525228,0.5986575879009371 c-0.3234681012203087,0.39884701234447795 -0.48569886908556525,0.944601445538666 -0.48569886908556525,1.635568828916721 c0,0.6952983920417934 0.16098169385568295,1.2434076958204376 0.4815180306908256,1.64585564442088 c0.3205331008921122,0.4024131123558624 0.7753999047879825,0.6035742623175679 1.3619728259472634,0.6035742623175679 " style="fill:#1d3c85;fill-opacity:1;fill-rule:nonzero;stroke:none;stroke-width:4.14988852" id="path130" inkscape:connector-curvature="0" inkscape:export-filename="C:\Users\suitedoalex\sites\ufrrj-logo-7.png" inkscape:export-xdpi="30.118164" inkscape:export-ydpi="30.118164" class=""/><path d="m67.51141627839363,11.264113976301095 h4.459029181085095 v12.073140414587419 c0,2.1814777921189163 0.40542159439770326,3.6261437029927945 1.211284666869962,4.339706410547516 c0.8057271628649999,0.7088642807216532 1.8491440491114715,1.0633882756248132 3.134276171868716,1.0633882756248132 c1.266075654253665,0 2.2744505134284307,-0.35030821381764654 3.0205392462508116,-1.049793207868296 c0.7467779886877673,-0.7042810814668128 1.12251627767142,-2.054202232691151 1.12251627767142,-4.062185998941026 V11.264113976301095 h3.8805234658995658 v12.100570533118669 c0,2.281203836997684 -0.31100648461183716,3.9167664132551216 -0.9342426403008454,4.903151701074625 c-0.6222912603242527,0.9901071088216163 -1.5229545198029457,1.7718797787548954 -2.6991842158290833,2.339993721547055 c-1.1820090902776899,0.5681478857996992 -2.6692420349726333,0.8497352056516169 -4.474205753895723,0.8497352056516169 c-1.7795874536819487,0 -3.3022863339855273,-0.2639030129239598 -4.577878896690375,-0.7905371117747341 c-1.2756055064769698,-0.5316770174357972 -2.2839836015947657,-1.313449687369076 -3.0251083978091495,-2.3585394067277425 c-0.7467812246307963,-1.0406327642722164 -1.117549105120393,-2.7036209928757016 -1.117549105120393,-4.984824829873385 zm22.014236926935524,19.70266832214466 v-19.70266832214466 h13.358034310694734 v2.703259827365657 h-8.89859740078786 v5.989255887876572 h7.291844900280429 v2.717336349887007 h-7.291848136223458 v8.292816257015426 zm17.031489782105574,0 v-19.70266832214466 h8.023439844271508 c1.6413997425294788,0 2.892302059915545,0.1905929647897868 3.7521406621279496,0.5677503953166737 c0.8558066171970444,0.3768507524763125 1.5374644883493978,0.9495467035405931 2.0320427851092413,1.7176052074452874 c0.4994192675327012,0.7682043992879772 0.746376731752049,1.6315305042565889 0.746376731752049,2.59925517706286 c0,1.1544359271636946 -0.36043551439485483,2.24472939568562 -1.0874677787136546,3.2717688786754 c-0.7220618558247438,1.0223639825740862 -1.744936975716872,1.8086865042460278 -3.0703565891974267,2.3491237950837576 l7.015469477975489,9.197164868560684 H118.53523528053672 l-5.3288280159437935,-8.052221669172138 h-2.447266050944768 v8.052221669172138 zm4.201998226213404,-10.755509782377409 h1.023279612770877 c1.8393359057875875,0 3.1095697468347825,-0.3684513468387451 3.806938121397712,-1.1042529769909692 c0.6969477019690316,-0.736292315033143 1.04798603780481,-1.572673031437819 1.04798603780481,-2.50359455170112 c0,-0.8088285221445569 -0.28672073217180155,-1.449728182928112 -0.8556901232479648,-1.9222416449859256 c-0.5684451683053066,-0.477071055184161 -1.7252041951200248,-0.7138095387235808 -3.4747070864522045,-0.7138095387235808 h-1.547806562273229 zm16.265237888263357,10.755509782377409 v-19.70266832214466 h8.023439844271508 c1.6411311592579902,0 2.8919266905240666,0.1905929647897868 3.751910910172821,0.5677503953166737 c0.8556707075897849,0.3768507524763125 1.537432128919098,0.9495467035405931 2.031874516071682,1.7176052074452874 c0.49980758069629966,0.7682043992879772 0.746936549896236,1.6315305042565889 0.746936549896236,2.59925517706286 c0,1.1544359271636946 -0.3609888606529822,2.24472939568562 -1.088008181199662,3.2717688786754 c-0.7212819935545176,1.0223639825740862 -1.7449855148623212,1.8086865042460278 -3.0699423884895887,2.3491237950837576 l7.01515559150158,9.197164868560684 h-5.433148347344442 l-5.329209857221332,-8.052221669172138 h-2.447266050944768 v8.052221669172138 zm4.201742586714035,-10.755509782377409 h1.0235417241563054 c1.8389411207379296,0 3.1099807115995906,-0.3684513468387451 3.8065239206898744,-1.1042529769909692 c0.6971192069496207,-0.736292315033143 1.0483646431393185,-1.572673031437819 1.0483646431393185,-2.50359455170112 c0,-0.8088285221445569 -0.28695048412693047,-1.449728182928112 -0.8556545278746351,-1.9222416449859256 c-0.5687169875198251,-0.477071055184161 -1.7256022161127127,-0.7138095387235808 -3.475101871501863,-0.7138095387235808 h-1.5476738886089998 zm12.596775476947787,14.218181876841333 l-0.02935000328196202,-2.9309953747738065 c1.156852869162588,0.4182713450273441 2.358209662816557,0.6270994462534022 3.5942169344356025,0.6270994462534022 c0.5184692641502215,0 0.9782644092807584,-0.09132693698688014 1.3741399717400058,-0.2681759611800653 c0.3951927784799206,-0.17746297578569387 0.7118589274512014,-0.46371984113970216 0.9489985405175759,-0.8633246162402105 c0.2371331411803148,-0.4000933757616661 0.35629674325950395,-1.226946528146614 0.35629674325950395,-2.476648865391505 v-17.253446895573287 h4.473920990909084 v16.812454279946564 c0,1.8447589888898641 -0.22771007507699922,3.1900966431136806 -0.6871330867590878,4.035242992342533 c-0.4597951451305371,0.84059768847291 -1.1864423322287692,1.5176025859251194 -2.190238332016107,2.03147500717817 c-0.9985570080217927,0.5085883286670907 -2.3231967592321214,0.7628649260055063 -3.9745534984648634,0.7628649260055063 c-1.226017915485483,0 -2.516829118260351,-0.15852664827262486 -3.8662529571373327,-0.4766997663209903 " style="fill:#1d3c85;fill-opacity:1;fill-rule:nonzero;stroke:none;stroke-width:4.14988852" id="path132" inkscape:connector-curvature="0" inkscape:export-filename="C:\Users\suitedoalex\sites\ufrrj-logo-7.png" inkscape:export-xdpi="30.118164" inkscape:export-ydpi="30.118164" class=""/></g></g></svg>